<svg width="375" height="360" viewBox="0 0 375 360" fill="none" xmlns="http://www.w3.org/2000/svg">
<path d="M0 40C0 17.9086 17.9086 0 40 0H142.692C150.681 0 158.455 2.59118 164.846 7.38462C177.974 17.2308 196.026 17.2308 209.154 7.38461C215.545 2.59118 223.319 0 231.308 0H335C357.091 0 375 17.9086 375 40V360H0V40Z" fill="white"/>
<path d="M181.462 7.69231C177.426 6.01066 178.628 0 183 0H191C195.372 0 196.574 6.01066 192.538 7.69231L188.538 9.35897C187.554 9.76923 186.446 9.76923 185.462 9.35897L181.462 7.69231Z" fill="white"/>
</svg>
