<svg width="379" height="176" viewBox="0 0 379 176" fill="none" xmlns="http://www.w3.org/2000/svg">
<path opacity="0.1" fill-rule="evenodd" clip-rule="evenodd" d="M2 7.91648L9.85397 27.5514C13.0089 35.4388 24.4427 34.5762 26.3786 26.3047L26.6915 24.9678C28.5176 17.1653 39.2755 16.2896 42.3394 23.6941C44.3028 28.4388 50.0786 30.2545 54.4035 27.4865L59.2021 24.4154C66.675 19.6327 76.638 23.5657 78.8289 32.1633L79.3955 34.3866C82.8499 47.9422 101.513 49.4327 107.075 36.5971L109.518 30.9577C113.127 22.6289 122.708 18.6831 131.136 22.0543L138.696 25.0783C142.992 26.7967 147.906 25.3796 150.627 21.6378C155.428 15.0359 165.671 16.5527 168.352 24.2629L172.643 36.5975C175.121 43.7224 184.197 45.8029 189.531 40.4688C192.27 37.73 196.321 36.7737 199.995 37.9985L224.662 46.2208C234.611 49.5369 245.483 45.0332 250.173 35.6538L256.259 23.4813C259.978 16.0445 270.017 14.6852 275.579 20.8654C279.319 25.0209 285.462 25.9805 290.291 23.1635L292.341 21.9676C299.72 17.6631 309.202 20.5269 312.964 28.1966L314.362 31.0458C321.124 44.8307 341.135 43.7812 346.757 29.4931C351.251 18.0702 365.725 14.3361 375.045 22.3247L377 24V176H2V7.91648Z" fill="url(#paint0_linear_57_11323)"/>
<path d="M2 7.91648L9.85397 27.5514C13.0089 35.4388 24.4427 34.5762 26.3786 26.3047L26.6915 24.9678C28.5176 17.1653 39.2755 16.2896 42.3394 23.6941V23.6941C44.3028 28.4388 50.0786 30.2545 54.4035 27.4865L59.2021 24.4154C66.675 19.6327 76.638 23.5657 78.8289 32.1633L79.3955 34.3866C82.8499 47.9422 101.513 49.4327 107.075 36.5971L109.518 30.9577C113.127 22.6289 122.708 18.6831 131.136 22.0543L138.696 25.0783C142.992 26.7967 147.906 25.3796 150.627 21.6378V21.6378C155.428 15.0359 165.671 16.5527 168.352 24.2629L172.643 36.5975C175.121 43.7224 184.197 45.8029 189.531 40.4688V40.4688C192.27 37.73 196.321 36.7737 199.995 37.9985L224.662 46.2208C234.611 49.5369 245.483 45.0332 250.173 35.6538L256.259 23.4813C259.978 16.0445 270.017 14.6852 275.579 20.8654V20.8654C279.319 25.0209 285.462 25.9805 290.291 23.1635L292.341 21.9676C299.72 17.6631 309.202 20.5269 312.964 28.1966L314.362 31.0458C321.124 44.8307 341.135 43.7812 346.757 29.4931V29.4931C351.251 18.0702 365.725 14.3361 375.045 22.3247L377 24" stroke="#5041AB" stroke-width="4" stroke-linecap="round"/>
<defs>
<linearGradient id="paint0_linear_57_11323" x1="2" y1="0" x2="2" y2="176" gradientUnits="userSpaceOnUse">
<stop stop-color="#5041AB"/>
<stop offset="1" stop-color="white"/>
</linearGradient>
</defs>
</svg>
